<svg width="28" height="28" viewBox="0 0 28 28" fill="none" xmlns="http://www.w3.org/2000/svg">
<path d="M18.6667 24.5V5.83333C18.6667 5.21449 18.4209 4.621 17.9833 4.18342C17.5457 3.74583 16.9522 3.5 16.3334 3.5H11.6667C11.0479 3.5 10.4544 3.74583 10.0168 4.18342C9.57921 4.621 9.33337 5.21449 9.33337 5.83333V24.5M4.66671 8.16667H23.3334C24.622 8.16667 25.6667 9.21134 25.6667 10.5V22.1667C25.6667 23.4553 24.622 24.5 23.3334 24.5H4.66671C3.37804 24.5 2.33337 23.4553 2.33337 22.1667V10.5C2.33337 9.21134 3.37804 8.16667 4.66671 8.16667Z" stroke="#9E9E9E" stroke-width="2" stroke-linecap="round" stroke-linejoin="round"/>
</svg>
