<svg width="24" height="24" viewBox="0 0 24 24" fill="none" xmlns="http://www.w3.org/2000/svg">
<mask id="mask0_35_997" style="mask-type:luminance" maskUnits="userSpaceOnUse" x="0" y="0" width="24" height="24">
<rect width="24" height="24" fill="white"/>
</mask>
<g mask="url(#mask0_35_997)">
<path fill-rule="evenodd" clip-rule="evenodd" d="M12 12C10.2137 12 8.56304 11.047 7.66987 9.5C6.77671 7.953 6.77671 6.04701 7.66987 4.5C8.56304 2.953 10.2137 2 12 2C13.7863 2 15.437 2.95299 16.3301 4.5C17.2233 6.047 17.2233 7.95299 16.3301 9.5C15.437 11.047 13.7863 12 12 12H12ZM12 10C13.6568 10 15 8.65686 15 7.00001C15 5.34316 13.6569 4.00001 12 4C10.3432 4 9.00001 5.34313 9 6.99999C8.99999 8.65684 10.3431 9.99999 12 10H12ZM21 21C21 21.3573 20.8094 21.6874 20.5 21.866C20.1906 22.0447 19.8094 22.0447 19.5 21.866C19.1906 21.6874 19 21.3573 19 21V19C19 17.3431 17.6569 16 16 16H8C6.34315 16 5 17.3431 5 19V21C5 21.3573 4.8094 21.6874 4.5 21.866C4.1906 22.0447 3.8094 22.0447 3.5 21.866C3.1906 21.6874 3 21.3573 3 21V19C3 16.2386 5.23858 14 8 14H16C18.7614 14 21 16.2386 21 19V21Z" fill="#9E9E9E"/>
</g>
</svg>
