<svg width="24" height="24" viewBox="0 0 24 24" fill="none" xmlns="http://www.w3.org/2000/svg">
<mask id="mask0_35_1016" style="mask-type:luminance" maskUnits="userSpaceOnUse" x="0" y="0" width="25" height="24">
<rect x="0.00012207" width="24" height="24" fill="white"/>
</mask>
<g mask="url(#mask0_35_1016)">
<path fill-rule="evenodd" clip-rule="evenodd" d="M15.4517 11.7097H7.32267C6.6813 11.7097 6.16138 12.2296 6.16138 12.871V18.6775C6.16138 19.3188 6.6813 19.8387 7.32267 19.8387H15.4517C16.0931 19.8387 16.613 19.3188 16.613 18.6775V12.871C16.613 12.2296 16.0931 11.7097 15.4517 11.7097ZM7.3227 10.5483C6.03998 10.5483 5.00012 11.5882 5.00012 12.8709V18.6774C5.00012 19.9601 6.03998 21 7.3227 21H15.4517C16.7345 21 17.7743 19.9601 17.7743 18.6774V12.8709C17.7743 11.5882 16.7345 10.5483 15.4517 10.5483H7.3227ZM7.32275 7.06452C7.32275 5.61241 8.09745 4.2706 9.35501 3.54454C10.6126 2.81849 12.162 2.81849 13.4195 3.54454C14.6771 4.2706 15.4518 5.6124 15.4518 7.06451V10.5484H14.2905V7.06452C14.2905 5.46111 12.9907 4.16129 11.3873 4.16129C9.78387 4.16129 8.48405 5.4611 8.48404 7.0645V10.5484H7.32275V7.06452Z" fill="#9E9E9E"/>
</g>
</svg>
