<svg width="188" height="212" viewBox="0 0 188 212" fill="none" xmlns="http://www.w3.org/2000/svg">
<mask id="path-1-inside-1_20_635" fill="white">
<path d="M77.8728 120.431C77.5537 119.959 76.882 119.896 76.4652 120.29C75.4127 121.284 74.3272 122.219 73.2075 123.094C72.8512 123.372 72.7327 123.86 72.931 124.263C73.1897 124.789 73.8656 124.947 74.3278 124.581C75.5047 123.647 76.6479 122.648 77.7526 121.585C78.0695 121.28 78.1176 120.793 77.8728 120.431ZM86.7611 112.722C86.2152 112.502 85.6015 112.809 85.4305 113.373C85.2747 113.887 85.5454 114.43 86.0434 114.628C87.1444 115.067 88.2267 115.56 89.2894 116.107C89.8197 116.38 90.4794 116.152 90.7148 115.602C90.9172 115.129 90.7312 114.58 90.2768 114.342C89.126 113.74 87.9543 113.201 86.7611 112.722ZM72.0749 163.969C71.6012 163.603 70.9026 163.707 70.5821 164.217C70.3259 164.625 70.4019 165.158 70.7751 165.458C71.8629 166.332 73.0117 167.084 74.2204 167.71C74.747 167.983 75.3852 167.709 75.5854 167.149C75.7628 166.653 75.5298 166.109 75.0623 165.87C74.019 165.336 73.0228 164.703 72.0749 163.969ZM66.003 156.28C65.6891 155.609 65.4009 154.922 65.1368 154.219C64.9439 153.705 64.3409 153.472 63.8568 153.737C63.4779 153.944 63.3004 154.393 63.4468 154.797C63.7652 155.675 64.1179 156.533 64.5054 157.364C64.7972 157.981 65.1083 158.581 65.4415 159.163C65.7301 159.667 66.4142 159.747 66.8386 159.346C67.1625 159.039 67.2228 158.549 66.9977 158.167C66.6383 157.558 66.3059 156.929 65.9997 156.274L66.003 156.28ZM68.6605 110.72C68.6809 110.136 68.2063 109.657 67.6214 109.684C66.357 109.744 65.0837 109.852 63.8156 110.008C63.2951 110.071 62.9148 110.528 62.9371 111.05C62.9625 111.645 63.494 112.084 64.0864 112.014C65.2769 111.873 66.4729 111.774 67.6592 111.72C68.2015 111.695 68.6416 111.261 68.6605 110.72ZM63.3423 140.417C63.3428 140.418 63.3421 140.419 63.341 140.419L62.2186 140.305C61.9106 140.274 61.6323 140.495 61.6009 140.803C61.416 142.614 61.4113 144.496 61.5854 146.418C61.6317 146.93 62.1267 147.269 62.6271 147.144C63.0499 147.039 63.328 146.636 63.2871 146.204C63.0983 144.206 63.1175 142.267 63.3399 140.418C63.34 140.416 63.3417 140.416 63.3423 140.417ZM142.863 69.0575C142.54 68.5877 141.867 68.5307 141.454 68.9291C140.408 69.9395 139.325 70.8907 138.207 71.7811C137.854 72.062 137.74 72.5494 137.941 72.9496C138.204 73.4732 138.882 73.6253 139.34 73.254C140.515 72.3024 141.653 71.2873 142.753 70.207C143.065 69.9004 143.109 69.4159 142.863 69.0575ZM121.683 79.7644C121.68 79.1755 121.177 78.7157 120.588 78.7555C120.102 78.7883 119.619 78.8181 119.145 78.8476C118.405 78.8898 117.646 78.9342 116.884 78.9956C116.356 79.0381 115.956 79.4868 115.964 80.0147C115.972 80.6056 116.483 81.0608 117.074 81.0163C117.761 80.9646 118.447 80.9246 119.12 80.8847C119.653 80.853 120.197 80.8209 120.745 80.7823C121.278 80.7447 121.686 80.2969 121.683 79.7644ZM132.928 76.646C132.74 76.0789 132.084 75.8232 131.545 76.0874C130.411 76.6424 129.256 77.1062 128.08 77.4805C127.6 77.6332 127.289 78.1045 127.36 78.6008C127.444 79.1949 128.033 79.578 128.606 79.3901C129.915 78.9604 131.2 78.4251 132.463 77.7863C132.881 77.5748 133.074 77.0882 132.928 76.646ZM57.2616 112.386C57.1875 111.792 56.609 111.399 56.0298 111.56C54.7465 111.917 53.4727 112.324 52.2253 112.775C51.7661 112.941 51.5035 113.422 51.6044 113.897C51.7292 114.484 52.3491 114.819 52.9181 114.618C54.1009 114.199 55.3041 113.822 56.514 113.49C57.0022 113.356 57.3239 112.886 57.2616 112.386ZM86.7326 168.754C86.6946 168.16 86.1519 167.734 85.5586 167.799C84.4289 167.922 83.3028 167.943 82.1801 167.861C81.6174 167.821 81.1026 168.211 81.0246 168.77C80.946 169.332 81.3399 169.851 81.9063 169.894C83.2259 169.994 84.5524 169.963 85.8834 169.799C86.3997 169.735 86.7657 169.271 86.7326 168.754ZM96.9056 118.806C96.45 118.417 95.7554 118.55 95.452 119.07C95.2057 119.492 95.3063 120.027 95.6784 120.34C96.6566 121.161 97.5905 122.048 98.4815 123.001C98.887 123.435 99.5897 123.418 99.9628 122.951C100.252 122.59 100.243 122.074 99.9322 121.735C98.9732 120.687 97.9644 119.71 96.9056 118.806ZM97.5896 163.734C97.3218 163.213 96.6439 163.07 96.168 163.417C95.0891 164.204 93.972 164.906 92.8205 165.525C92.8111 165.53 92.8017 165.535 92.7923 165.54C92.3724 165.767 92.1493 166.25 92.2809 166.706L92.3404 166.913C92.4746 167.378 92.9965 167.608 93.4275 167.381C94.7735 166.66 96.0729 165.829 97.3282 164.887C97.6872 164.618 97.7937 164.13 97.5896 163.734ZM108.762 146.273C108.994 144.493 109.042 142.729 108.905 140.977C108.865 140.465 108.372 140.124 107.871 140.245C107.445 140.347 107.164 140.752 107.2 141.187C107.335 142.806 107.299 144.437 107.085 146.083C107.057 146.258 107.033 146.439 107.005 146.62C106.98 146.782 107.089 146.934 107.251 146.961L108.306 147.137C108.482 147.167 108.649 147.046 108.677 146.869C108.708 146.669 108.735 146.468 108.762 146.273ZM105.796 153.615C105.361 153.336 104.777 153.503 104.532 153.961C103.814 155.305 102.96 156.609 101.98 157.852C101.712 158.191 101.71 158.67 101.984 159.001C102.341 159.43 103.004 159.428 103.348 158.984C104.404 157.62 105.324 156.187 106.093 154.706C106.293 154.319 106.161 153.849 105.796 153.615ZM46.2192 116.656C46.0374 116.085 45.3813 115.819 44.8543 116.112C43.6135 116.802 42.3935 117.546 41.1943 118.344C40.8148 118.597 40.6742 119.084 40.8549 119.5C41.091 120.042 41.7648 120.233 42.2635 119.908C43.4079 119.16 44.5694 118.461 45.7491 117.812C46.161 117.585 46.3609 117.101 46.2192 116.656ZM85.7367 109.881C85.3181 109.555 84.7043 109.678 84.4324 110.137C83.5758 111.585 82.7214 112.902 81.8389 114.127C81.5878 114.476 81.6133 114.952 81.9062 115.263C82.2837 115.664 82.9351 115.622 83.2556 115.171C84.2102 113.826 85.1096 112.435 85.9515 110.99C86.1685 110.618 86.0748 110.145 85.7367 109.881ZM77.1347 110.139C76.5901 110.058 76.0373 109.987 75.4828 109.925C74.9277 109.863 74.4295 110.268 74.3644 110.822C74.2975 111.391 74.7116 111.9 75.2812 111.965C75.797 112.024 76.3105 112.092 76.8183 112.167C77.4637 112.264 78.1103 112.375 78.7502 112.499C79.3146 112.61 79.871 112.249 79.9855 111.685C80.0963 111.139 79.7508 110.606 79.2048 110.499C78.5208 110.363 77.8264 110.242 77.1347 110.139ZM92.0173 97.9404C91.5993 97.6174 90.9888 97.7416 90.733 98.207C89.8378 99.8349 88.999 101.498 88.1788 103.116C88.1111 103.249 88.1523 103.41 88.2751 103.493L89.2856 104.176C89.3995 104.253 89.5559 104.212 89.6187 104.089C90.5 102.349 91.3357 100.695 92.2422 99.0523C92.4506 98.6747 92.3568 98.2028 92.0173 97.9404ZM100.004 87.714C99.7056 87.2187 99.0265 87.1205 98.6073 87.5242C97.4753 88.6145 96.4062 89.7909 95.4003 91.0518C95.1312 91.389 95.1517 91.8689 95.4411 92.1852C95.814 92.5928 96.4673 92.5612 96.8182 92.13C97.7644 90.9674 98.7689 89.8841 99.8328 88.882C100.156 88.5778 100.231 88.0916 100.004 87.714ZM104.775 128.391C104.482 127.888 103.796 127.802 103.369 128.203C103.045 128.506 102.982 128.994 103.208 129.372C103.985 130.675 104.642 131.96 105.196 133.269C105.412 133.78 106.033 133.991 106.51 133.7C106.879 133.476 107.038 133.021 106.875 132.623C106.296 131.206 105.592 129.79 104.775 128.391ZM110.312 81.3719C110.207 80.7799 109.6 80.42 109.036 80.6369C107.726 81.1404 106.449 81.7596 105.202 82.4944C104.806 82.7278 104.646 83.2151 104.813 83.6403C105.03 84.1929 105.698 84.4082 106.218 84.113C107.333 83.4796 108.477 82.9444 109.647 82.5073C110.112 82.3337 110.399 81.858 110.312 81.3719ZM19.6985 143.715C19.2758 143.403 18.6713 143.538 18.4237 144.004C17.6298 145.5 16.8809 147.028 16.1769 148.587C15.9968 148.986 16.15 149.453 16.5283 149.669C16.9712 149.923 17.539 149.734 17.7509 149.268C18.4364 147.758 19.1673 146.278 19.9437 144.826C20.148 144.444 20.0453 143.971 19.6985 143.715ZM36.0439 123.605C35.7614 123.096 35.0821 122.973 34.6405 123.358C33.4985 124.354 32.3784 125.403 31.2964 126.483C30.9871 126.792 30.9449 127.276 31.1919 127.633C31.516 128.102 32.1895 128.156 32.5977 127.753C33.645 126.72 34.7278 125.72 35.8298 124.769C36.1674 124.478 36.2589 123.992 36.0439 123.605ZM68.2201 128.503C67.8992 128.033 67.2247 127.972 66.8415 128.399C65.6856 129.686 64.7299 131.073 63.9447 132.602C63.7456 132.99 63.8862 133.46 64.2556 133.688C64.6935 133.958 65.2708 133.783 65.5146 133.327C66.2226 132.003 67.0821 130.794 68.1201 129.668C68.4169 129.346 68.4652 128.863 68.2201 128.503ZM27.0868 132.741C26.724 132.319 26.0641 132.331 25.7181 132.772C24.7204 134.042 23.7617 135.35 22.8387 136.698C22.5951 137.054 22.6489 137.531 22.9617 137.824C23.3577 138.195 23.9947 138.119 24.3045 137.67C25.2007 136.37 26.1355 135.108 27.1038 133.885C27.372 133.547 27.3665 133.067 27.0868 132.741ZM10.1735 179.21C9.90422 179.169 9.63437 179.159 9.36322 179.184C9.08805 179.208 8.81961 179.267 8.5514 179.352C8.28242 179.442 8.02571 179.558 7.77248 179.705C7.52328 179.853 7.28232 180.026 7.05766 180.227C6.833 180.428 6.62464 180.657 6.43409 180.903C6.23876 181.153 6.07005 181.418 5.92241 181.705C5.77075 181.992 5.64647 182.288 5.54402 182.602C5.44233 182.911 5.364 183.229 5.31305 183.555C5.26285 183.877 5.24003 184.208 5.24285 184.533C5.24567 184.858 5.27336 185.181 5.33071 185.499C5.38481 185.812 5.46454 186.118 5.57143 186.408C5.68158 186.704 5.81161 186.978 5.96478 187.235C6.11794 187.493 6.29023 187.733 6.48718 187.947C6.68011 188.16 6.89368 188.347 7.12388 188.506C7.34929 188.669 7.59208 188.8 7.84748 188.903C8.09885 189.005 8.35882 189.079 8.62812 189.119C8.89742 189.159 9.16803 189.165 9.43918 189.14C9.71435 189.116 9.98202 189.061 10.2502 188.977C10.5192 188.887 10.7759 188.77 11.0292 188.623C11.2784 188.476 11.5201 188.297 11.7447 188.096C11.9694 187.895 12.177 187.672 12.3683 187.421C12.5589 187.175 12.7323 186.906 12.8792 186.624C13.0309 186.337 13.1559 186.036 13.2576 185.727C13.3593 185.418 13.4376 185.1 13.4886 184.773C13.5395 184.447 13.5616 184.121 13.5588 183.796C13.5567 183.466 13.5283 183.147 13.4709 182.83C13.4176 182.512 13.3331 182.21 13.2269 181.915C13.1201 181.625 12.99 181.351 12.8376 181.089C12.6844 180.831 12.5074 180.595 12.3145 180.382C12.1175 180.168 11.908 179.982 11.6785 179.818C11.4483 179.659 11.2103 179.524 10.9549 179.421C10.7035 179.318 10.4428 179.25 10.1735 179.21ZM14.8234 149.393C14.2969 149.315 13.7645 149.3 13.2302 149.351C12.6927 149.395 12.1613 149.506 11.637 149.677C11.1126 149.848 10.6032 150.082 10.1096 150.373C9.61668 150.658 9.14759 151.003 8.70305 151.401C8.2633 151.794 7.85287 152.237 7.47655 152.725C7.10023 153.213 6.76759 153.737 6.47459 154.297C6.17757 154.857 5.92977 155.444 5.73194 156.053C5.52932 156.666 5.38298 157.288 5.28335 157.927C4.26728 164.442 7.24741 171.284 9.11301 174.775C9.43456 175.377 9.72232 175.879 9.9537 176.268C9.97652 176.306 9.99933 176.344 10.0221 176.383C10.1492 176.596 10.3237 176.717 10.5495 176.746C10.7721 176.769 10.9722 176.699 11.1562 176.522C13.3353 174.416 20.2429 167.282 21.329 160.318C21.4286 159.679 21.4785 159.042 21.4721 158.398C21.4649 157.758 21.4113 157.126 21.2983 156.506C21.1893 155.886 21.0316 155.288 20.8211 154.713C20.6106 154.138 20.3538 153.595 20.054 153.092C19.7509 152.582 19.408 152.117 19.0247 151.701C18.6421 151.28 18.227 150.908 17.7787 150.592C17.3303 150.276 16.8568 150.016 16.3573 149.816C15.8626 149.613 15.35 149.472 14.8234 149.393ZM12.646 163.355C12.3767 163.315 12.116 163.246 11.8646 163.144C11.6092 163.041 11.3704 162.911 11.141 162.747C10.9108 162.588 10.702 162.397 10.5051 162.183C10.3121 161.97 10.1351 161.734 9.98191 161.476C9.82874 161.219 9.69947 160.94 9.59258 160.65C9.48244 160.354 9.40194 160.053 9.34861 159.735C9.2905 159.422 9.2628 159.099 9.25998 158.774C9.25793 158.444 9.27999 158.118 9.33094 157.792C9.38113 157.47 9.45947 157.152 9.56192 156.838C9.6636 156.529 9.78865 156.228 9.93954 155.946C10.0872 155.659 10.2567 155.39 10.4512 155.144C10.6425 154.893 10.8501 154.67 11.0748 154.469C11.2995 154.267 11.5404 154.094 11.7896 153.946C12.0436 153.795 12.3003 153.678 12.5685 153.593C12.8375 153.504 13.1052 153.449 13.3804 153.425C13.6515 153.4 13.9221 153.406 14.1914 153.446C14.4607 153.486 14.7207 153.56 14.9761 153.663C15.2274 153.765 15.4702 153.896 15.6957 154.059C15.9258 154.218 16.1387 154.41 16.3316 154.623C16.5285 154.837 16.7016 155.072 16.8548 155.33C17.0079 155.587 17.1372 155.866 17.2481 156.157C17.3542 156.452 17.4347 156.753 17.4881 157.071C17.5454 157.389 17.5739 157.707 17.5759 158.037C17.5787 158.362 17.5567 158.688 17.5057 159.014C17.4548 159.341 17.3764 159.659 17.2747 159.968C17.1731 160.277 17.048 160.578 16.8964 160.865C16.7495 161.147 16.576 161.416 16.3854 161.662C16.1941 161.913 15.9865 162.136 15.7619 162.338C15.5372 162.539 15.2963 162.712 15.047 162.86C14.7938 163.007 14.5364 163.128 14.2681 163.213C13.9992 163.302 13.7315 163.357 13.4563 163.381C13.1852 163.406 12.9153 163.395 12.646 163.355ZM176.481 49.8785C176.39 49.3061 176.432 48.6861 176.828 48.2587L176.872 48.2113C177.144 47.9175 177.433 47.6413 177.733 47.3815L181.278 44.3219C183.583 42.3349 185.759 38.6671 186.072 35.3655C186.338 32.5258 184.919 29.999 183.328 27.726L182.642 26.7455C181.047 24.472 179.224 22.3642 176.869 22.2229C174.13 22.0643 170.794 24.0723 168.806 26.5106L165.749 30.2617C165.489 30.5823 165.216 30.881 164.93 31.1627C164.527 31.5578 163.902 31.4729 163.365 31.3084C163.101 31.2277 162.879 31.2616 162.702 31.3389C162.355 31.4901 162.42 31.9393 162.707 32.1824C163.05 32.4728 163.068 32.996 162.745 33.3128L148.909 46.8896C146.511 49.3668 141.419 58.4184 143.329 61.1482L148.99 69.2321C150.902 71.957 159.089 67.3235 161.49 64.8469L174.718 50.5457C175.012 50.2286 175.534 50.3239 175.692 50.7233C175.826 51.063 176.236 51.1651 176.382 50.8283C176.483 50.5945 176.545 50.2811 176.481 49.8785ZM168.482 55.0493C168.362 55.1751 168.169 55.1829 168.032 55.0779C167.523 54.662 167.444 53.8979 167.904 53.4234L170.358 50.8936C171.066 50.1613 171.986 51.2686 171.3 52.021C170.442 52.9619 169.48 54.0016 168.482 55.0493ZM153.846 67.1062C151.938 66.3854 150.221 64.313 149.389 63.1757C149.02 62.6724 148.664 62.1626 148.317 61.6441C147.527 60.4629 146.121 58.0753 145.84 55.6789C145.812 55.4602 145.876 55.2851 146.022 55.1422L150.97 50.3654C151.087 50.253 151.216 50.2124 151.359 50.2437C151.499 50.2744 151.603 50.3698 151.666 50.519C152.134 51.6615 153.428 54.4641 154.748 56.3374C156.063 58.215 158.132 60.2198 158.982 60.9653C159.099 61.0625 159.155 61.2006 159.157 61.3755C159.163 61.5461 159.107 61.6974 158.998 61.8159L154.311 66.971C154.172 67.1249 154.018 67.1667 153.846 67.1062ZM164.59 33.7615C164.59 33.7617 164.59 33.7616 164.59 33.7618C164.587 33.7674 162.264 37.9416 161.696 38.5301L159.344 40.9521C158.901 41.4081 158.139 41.2283 157.916 40.6368C157.849 40.4454 157.89 40.2297 158.033 40.0845C161.343 36.7322 164.519 33.8231 164.59 33.758C164.591 33.757 164.591 33.76 164.59 33.7615ZM175.698 46.5392C173.241 48.0399 170.051 46.9808 168.606 44.5127C168.305 43.9974 167.987 43.4923 167.661 43.0267C167.091 42.2148 166.419 41.4134 165.765 40.6966C164.257 39.0428 163.855 36.5794 165.011 34.6479L166.81 31.6487C167.061 31.2309 167.494 30.9515 167.972 31.042C169.139 31.2559 171.532 32.2111 174.307 36.1725C176.535 39.3555 177.225 41.9262 177.405 43.5587C177.542 44.8045 176.773 45.8826 175.698 46.5392ZM185.148 34.9021C185.285 34.1505 185.88 34.2663 185.804 35.0261C185.772 35.3576 185.723 35.6858 185.659 36.0101C185.568 36.4692 185.056 36.4632 185.055 35.9959C185.055 35.9712 185.057 35.9451 185.06 35.9206C185.062 35.9041 185.064 35.8883 185.064 35.8739C185.083 35.6721 185.094 35.4692 185.092 35.2693C185.107 35.144 185.126 35.0212 185.148 34.9021ZM177.099 22.5964C177.827 22.6364 177.884 23.3383 177.157 23.3976C177.07 23.4047 176.98 23.4088 176.89 23.4092C176.822 23.4096 176.754 23.4018 176.686 23.3914C176.557 23.3714 176.427 23.3577 176.295 23.3498L176.221 23.3439C175.715 23.2494 175.819 22.6498 176.334 22.6082C176.588 22.5876 176.843 22.5834 177.099 22.5964ZM157.112 41.0209C157.179 40.9482 157.293 40.9669 157.337 41.0548C157.356 41.0942 157.376 41.1336 157.397 41.1731C157.752 41.9062 157.574 42.7765 157.003 43.3647L154.365 46.0808C153.578 46.8922 152.665 45.7831 153.427 44.9478C154.532 43.7358 155.81 42.3626 157.112 41.0209ZM167.587 55.9797C166.431 57.1707 165.258 58.3355 164.193 59.3715C163.379 60.1644 162.236 59.2651 163.027 58.4491L165.732 55.6632C166.222 55.1586 167.021 55.1171 167.512 55.6143C167.537 55.6409 167.562 55.667 167.587 55.6928C167.664 55.7727 167.664 55.8987 167.587 55.9797Z"/>
</mask>
<path d="M77.8728 120.431C77.5537 119.959 76.882 119.896 76.4652 120.29C75.4127 121.284 74.3272 122.219 73.2075 123.094C72.8512 123.372 72.7327 123.86 72.931 124.263C73.1897 124.789 73.8656 124.947 74.3278 124.581C75.5047 123.647 76.6479 122.648 77.7526 121.585C78.0695 121.28 78.1176 120.793 77.8728 120.431ZM86.7611 112.722C86.2152 112.502 85.6015 112.809 85.4305 113.373C85.2747 113.887 85.5454 114.43 86.0434 114.628C87.1444 115.067 88.2267 115.56 89.2894 116.107C89.8197 116.38 90.4794 116.152 90.7148 115.602C90.9172 115.129 90.7312 114.58 90.2768 114.342C89.126 113.74 87.9543 113.201 86.7611 112.722ZM72.0749 163.969C71.6012 163.603 70.9026 163.707 70.5821 164.217C70.3259 164.625 70.4019 165.158 70.7751 165.458C71.8629 166.332 73.0117 167.084 74.2204 167.71C74.747 167.983 75.3852 167.709 75.5854 167.149C75.7628 166.653 75.5298 166.109 75.0623 165.87C74.019 165.336 73.0228 164.703 72.0749 163.969ZM66.003 156.28C65.6891 155.609 65.4009 154.922 65.1368 154.219C64.9439 153.705 64.3409 153.472 63.8568 153.737C63.4779 153.944 63.3004 154.393 63.4468 154.797C63.7652 155.675 64.1179 156.533 64.5054 157.364C64.7972 157.981 65.1083 158.581 65.4415 159.163C65.7301 159.667 66.4142 159.747 66.8386 159.346C67.1625 159.039 67.2228 158.549 66.9977 158.167C66.6383 157.558 66.3059 156.929 65.9997 156.274L66.003 156.28ZM68.6605 110.72C68.6809 110.136 68.2063 109.657 67.6214 109.684C66.357 109.744 65.0837 109.852 63.8156 110.008C63.2951 110.071 62.9148 110.528 62.9371 111.05C62.9625 111.645 63.494 112.084 64.0864 112.014C65.2769 111.873 66.4729 111.774 67.6592 111.72C68.2015 111.695 68.6416 111.261 68.6605 110.72ZM63.3423 140.417C63.3428 140.418 63.3421 140.419 63.341 140.419L62.2186 140.305C61.9106 140.274 61.6323 140.495 61.6009 140.803C61.416 142.614 61.4113 144.496 61.5854 146.418C61.6317 146.93 62.1267 147.269 62.6271 147.144C63.0499 147.039 63.328 146.636 63.2871 146.204C63.0983 144.206 63.1175 142.267 63.3399 140.418C63.34 140.416 63.3417 140.416 63.3423 140.417ZM142.863 69.0575C142.54 68.5877 141.867 68.5307 141.454 68.9291C140.408 69.9395 139.325 70.8907 138.207 71.7811C137.854 72.062 137.74 72.5494 137.941 72.9496C138.204 73.4732 138.882 73.6253 139.34 73.254C140.515 72.3024 141.653 71.2873 142.753 70.207C143.065 69.9004 143.109 69.4159 142.863 69.0575ZM121.683 79.7644C121.68 79.1755 121.177 78.7157 120.588 78.7555C120.102 78.7883 119.619 78.8181 119.145 78.8476C118.405 78.8898 117.646 78.9342 116.884 78.9956C116.356 79.0381 115.956 79.4868 115.964 80.0147C115.972 80.6056 116.483 81.0608 117.074 81.0163C117.761 80.9646 118.447 80.9246 119.12 80.8847C119.653 80.853 120.197 80.8209 120.745 80.7823C121.278 80.7447 121.686 80.2969 121.683 79.7644ZM132.928 76.646C132.74 76.0789 132.084 75.8232 131.545 76.0874C130.411 76.6424 129.256 77.1062 128.08 77.4805C127.6 77.6332 127.289 78.1045 127.36 78.6008C127.444 79.1949 128.033 79.578 128.606 79.3901C129.915 78.9604 131.2 78.4251 132.463 77.7863C132.881 77.5748 133.074 77.0882 132.928 76.646ZM57.2616 112.386C57.1875 111.792 56.609 111.399 56.0298 111.56C54.7465 111.917 53.4727 112.324 52.2253 112.775C51.7661 112.941 51.5035 113.422 51.6044 113.897C51.7292 114.484 52.3491 114.819 52.9181 114.618C54.1009 114.199 55.3041 113.822 56.514 113.49C57.0022 113.356 57.3239 112.886 57.2616 112.386ZM86.7326 168.754C86.6946 168.16 86.1519 167.734 85.5586 167.799C84.4289 167.922 83.3028 167.943 82.1801 167.861C81.6174 167.821 81.1026 168.211 81.0246 168.77C80.946 169.332 81.3399 169.851 81.9063 169.894C83.2259 169.994 84.5524 169.963 85.8834 169.799C86.3997 169.735 86.7657 169.271 86.7326 168.754ZM96.9056 118.806C96.45 118.417 95.7554 118.55 95.452 119.07C95.2057 119.492 95.3063 120.027 95.6784 120.34C96.6566 121.161 97.5905 122.048 98.4815 123.001C98.887 123.435 99.5897 123.418 99.9628 122.951C100.252 122.59 100.243 122.074 99.9322 121.735C98.9732 120.687 97.9644 119.71 96.9056 118.806ZM97.5896 163.734C97.3218 163.213 96.6439 163.07 96.168 163.417C95.0891 164.204 93.972 164.906 92.8205 165.525C92.8111 165.53 92.8017 165.535 92.7923 165.54C92.3724 165.767 92.1493 166.25 92.2809 166.706L92.3404 166.913C92.4746 167.378 92.9965 167.608 93.4275 167.381C94.7735 166.66 96.0729 165.829 97.3282 164.887C97.6872 164.618 97.7937 164.13 97.5896 163.734ZM108.762 146.273C108.994 144.493 109.042 142.729 108.905 140.977C108.865 140.465 108.372 140.124 107.871 140.245C107.445 140.347 107.164 140.752 107.2 141.187C107.335 142.806 107.299 144.437 107.085 146.083C107.057 146.258 107.033 146.439 107.005 146.62C106.98 146.782 107.089 146.934 107.251 146.961L108.306 147.137C108.482 147.167 108.649 147.046 108.677 146.869C108.708 146.669 108.735 146.468 108.762 146.273ZM105.796 153.615C105.361 153.336 104.777 153.503 104.532 153.961C103.814 155.305 102.96 156.609 101.98 157.852C101.712 158.191 101.71 158.67 101.984 159.001C102.341 159.43 103.004 159.428 103.348 158.984C104.404 157.62 105.324 156.187 106.093 154.706C106.293 154.319 106.161 153.849 105.796 153.615ZM46.2192 116.656C46.0374 116.085 45.3813 115.819 44.8543 116.112C43.6135 116.802 42.3935 117.546 41.1943 118.344C40.8148 118.597 40.6742 119.084 40.8549 119.5C41.091 120.042 41.7648 120.233 42.2635 119.908C43.4079 119.16 44.5694 118.461 45.7491 117.812C46.161 117.585 46.3609 117.101 46.2192 116.656ZM85.7367 109.881C85.3181 109.555 84.7043 109.678 84.4324 110.137C83.5758 111.585 82.7214 112.902 81.8389 114.127C81.5878 114.476 81.6133 114.952 81.9062 115.263C82.2837 115.664 82.9351 115.622 83.2556 115.171C84.2102 113.826 85.1096 112.435 85.9515 110.99C86.1685 110.618 86.0748 110.145 85.7367 109.881ZM77.1347 110.139C76.5901 110.058 76.0373 109.987 75.4828 109.925C74.9277 109.863 74.4295 110.268 74.3644 110.822C74.2975 111.391 74.7116 111.9 75.2812 111.965C75.797 112.024 76.3105 112.092 76.8183 112.167C77.4637 112.264 78.1103 112.375 78.7502 112.499C79.3146 112.61 79.871 112.249 79.9855 111.685C80.0963 111.139 79.7508 110.606 79.2048 110.499C78.5208 110.363 77.8264 110.242 77.1347 110.139ZM92.0173 97.9404C91.5993 97.6174 90.9888 97.7416 90.733 98.207C89.8378 99.8349 88.999 101.498 88.1788 103.116C88.1111 103.249 88.1523 103.41 88.2751 103.493L89.2856 104.176C89.3995 104.253 89.5559 104.212 89.6187 104.089C90.5 102.349 91.3357 100.695 92.2422 99.0523C92.4506 98.6747 92.3568 98.2028 92.0173 97.9404ZM100.004 87.714C99.7056 87.2187 99.0265 87.1205 98.6073 87.5242C97.4753 88.6145 96.4062 89.7909 95.4003 91.0518C95.1312 91.389 95.1517 91.8689 95.4411 92.1852C95.814 92.5928 96.4673 92.5612 96.8182 92.13C97.7644 90.9674 98.7689 89.8841 99.8328 88.882C100.156 88.5778 100.231 88.0916 100.004 87.714ZM104.775 128.391C104.482 127.888 103.796 127.802 103.369 128.203C103.045 128.506 102.982 128.994 103.208 129.372C103.985 130.675 104.642 131.96 105.196 133.269C105.412 133.78 106.033 133.991 106.51 133.7C106.879 133.476 107.038 133.021 106.875 132.623C106.296 131.206 105.592 129.79 104.775 128.391ZM110.312 81.3719C110.207 80.7799 109.6 80.42 109.036 80.6369C107.726 81.1404 106.449 81.7596 105.202 82.4944C104.806 82.7278 104.646 83.2151 104.813 83.6403C105.03 84.1929 105.698 84.4082 106.218 84.113C107.333 83.4796 108.477 82.9444 109.647 82.5073C110.112 82.3337 110.399 81.858 110.312 81.3719ZM19.6985 143.715C19.2758 143.403 18.6713 143.538 18.4237 144.004C17.6298 145.5 16.8809 147.028 16.1769 148.587C15.9968 148.986 16.15 149.453 16.5283 149.669C16.9712 149.923 17.539 149.734 17.7509 149.268C18.4364 147.758 19.1673 146.278 19.9437 144.826C20.148 144.444 20.0453 143.971 19.6985 143.715ZM36.0439 123.605C35.7614 123.096 35.0821 122.973 34.6405 123.358C33.4985 124.354 32.3784 125.403 31.2964 126.483C30.9871 126.792 30.9449 127.276 31.1919 127.633C31.516 128.102 32.1895 128.156 32.5977 127.753C33.645 126.72 34.7278 125.72 35.8298 124.769C36.1674 124.478 36.2589 123.992 36.0439 123.605ZM68.2201 128.503C67.8992 128.033 67.2247 127.972 66.8415 128.399C65.6856 129.686 64.7299 131.073 63.9447 132.602C63.7456 132.99 63.8862 133.46 64.2556 133.688C64.6935 133.958 65.2708 133.783 65.5146 133.327C66.2226 132.003 67.0821 130.794 68.1201 129.668C68.4169 129.346 68.4652 128.863 68.2201 128.503ZM27.0868 132.741C26.724 132.319 26.0641 132.331 25.7181 132.772C24.7204 134.042 23.7617 135.35 22.8387 136.698C22.5951 137.054 22.6489 137.531 22.9617 137.824C23.3577 138.195 23.9947 138.119 24.3045 137.67C25.2007 136.37 26.1355 135.108 27.1038 133.885C27.372 133.547 27.3665 133.067 27.0868 132.741ZM10.1735 179.21C9.90422 179.169 9.63437 179.159 9.36322 179.184C9.08805 179.208 8.81961 179.267 8.5514 179.352C8.28242 179.442 8.02571 179.558 7.77248 179.705C7.52328 179.853 7.28232 180.026 7.05766 180.227C6.833 180.428 6.62464 180.657 6.43409 180.903C6.23876 181.153 6.07005 181.418 5.92241 181.705C5.77075 181.992 5.64647 182.288 5.54402 182.602C5.44233 182.911 5.364 183.229 5.31305 183.555C5.26285 183.877 5.24003 184.208 5.24285 184.533C5.24567 184.858 5.27336 185.181 5.33071 185.499C5.38481 185.812 5.46454 186.118 5.57143 186.408C5.68158 186.704 5.81161 186.978 5.96478 187.235C6.11794 187.493 6.29023 187.733 6.48718 187.947C6.68011 188.16 6.89368 188.347 7.12388 188.506C7.34929 188.669 7.59208 188.8 7.84748 188.903C8.09885 189.005 8.35882 189.079 8.62812 189.119C8.89742 189.159 9.16803 189.165 9.43918 189.14C9.71435 189.116 9.98202 189.061 10.2502 188.977C10.5192 188.887 10.7759 188.77 11.0292 188.623C11.2784 188.476 11.5201 188.297 11.7447 188.096C11.9694 187.895 12.177 187.672 12.3683 187.421C12.5589 187.175 12.7323 186.906 12.8792 186.624C13.0309 186.337 13.1559 186.036 13.2576 185.727C13.3593 185.418 13.4376 185.1 13.4886 184.773C13.5395 184.447 13.5616 184.121 13.5588 183.796C13.5567 183.466 13.5283 183.147 13.4709 182.83C13.4176 182.512 13.3331 182.21 13.2269 181.915C13.1201 181.625 12.99 181.351 12.8376 181.089C12.6844 180.831 12.5074 180.595 12.3145 180.382C12.1175 180.168 11.908 179.982 11.6785 179.818C11.4483 179.659 11.2103 179.524 10.9549 179.421C10.7035 179.318 10.4428 179.25 10.1735 179.21ZM14.8234 149.393C14.2969 149.315 13.7645 149.3 13.2302 149.351C12.6927 149.395 12.1613 149.506 11.637 149.677C11.1126 149.848 10.6032 150.082 10.1096 150.373C9.61668 150.658 9.14759 151.003 8.70305 151.401C8.2633 151.794 7.85287 152.237 7.47655 152.725C7.10023 153.213 6.76759 153.737 6.47459 154.297C6.17757 154.857 5.92977 155.444 5.73194 156.053C5.52932 156.666 5.38298 157.288 5.28335 157.927C4.26728 164.442 7.24741 171.284 9.11301 174.775C9.43456 175.377 9.72232 175.879 9.9537 176.268C9.97652 176.306 9.99933 176.344 10.0221 176.383C10.1492 176.596 10.3237 176.717 10.5495 176.746C10.7721 176.769 10.9722 176.699 11.1562 176.522C13.3353 174.416 20.2429 167.282 21.329 160.318C21.4286 159.679 21.4785 159.042 21.4721 158.398C21.4649 157.758 21.4113 157.126 21.2983 156.506C21.1893 155.886 21.0316 155.288 20.8211 154.713C20.6106 154.138 20.3538 153.595 20.054 153.092C19.7509 152.582 19.408 152.117 19.0247 151.701C18.6421 151.28 18.227 150.908 17.7787 150.592C17.3303 150.276 16.8568 150.016 16.3573 149.816C15.8626 149.613 15.35 149.472 14.8234 149.393ZM12.646 163.355C12.3767 163.315 12.116 163.246 11.8646 163.144C11.6092 163.041 11.3704 162.911 11.141 162.747C10.9108 162.588 10.702 162.397 10.5051 162.183C10.3121 161.97 10.1351 161.734 9.98191 161.476C9.82874 161.219 9.69947 160.94 9.59258 160.65C9.48244 160.354 9.40194 160.053 9.34861 159.735C9.2905 159.422 9.2628 159.099 9.25998 158.774C9.25793 158.444 9.27999 158.118 9.33094 157.792C9.38113 157.47 9.45947 157.152 9.56192 156.838C9.6636 156.529 9.78865 156.228 9.93954 155.946C10.0872 155.659 10.2567 155.39 10.4512 155.144C10.6425 154.893 10.8501 154.67 11.0748 154.469C11.2995 154.267 11.5404 154.094 11.7896 153.946C12.0436 153.795 12.3003 153.678 12.5685 153.593C12.8375 153.504 13.1052 153.449 13.3804 153.425C13.6515 153.4 13.9221 153.406 14.1914 153.446C14.4607 153.486 14.7207 153.56 14.9761 153.663C15.2274 153.765 15.4702 153.896 15.6957 154.059C15.9258 154.218 16.1387 154.41 16.3316 154.623C16.5285 154.837 16.7016 155.072 16.8548 155.33C17.0079 155.587 17.1372 155.866 17.2481 156.157C17.3542 156.452 17.4347 156.753 17.4881 157.071C17.5454 157.389 17.5739 157.707 17.5759 158.037C17.5787 158.362 17.5567 158.688 17.5057 159.014C17.4548 159.341 17.3764 159.659 17.2747 159.968C17.1731 160.277 17.048 160.578 16.8964 160.865C16.7495 161.147 16.576 161.416 16.3854 161.662C16.1941 161.913 15.9865 162.136 15.7619 162.338C15.5372 162.539 15.2963 162.712 15.047 162.86C14.7938 163.007 14.5364 163.128 14.2681 163.213C13.9992 163.302 13.7315 163.357 13.4563 163.381C13.1852 163.406 12.9153 163.395 12.646 163.355ZM176.481 49.8785C176.39 49.3061 176.432 48.6861 176.828 48.2587L176.872 48.2113C177.144 47.9175 177.433 47.6413 177.733 47.3815L181.278 44.3219C183.583 42.3349 185.759 38.6671 186.072 35.3655C186.338 32.5258 184.919 29.999 183.328 27.726L182.642 26.7455C181.047 24.472 179.224 22.3642 176.869 22.2229C174.13 22.0643 170.794 24.0723 168.806 26.5106L165.749 30.2617C165.489 30.5823 165.216 30.881 164.93 31.1627C164.527 31.5578 163.902 31.4729 163.365 31.3084C163.101 31.2277 162.879 31.2616 162.702 31.3389C162.355 31.4901 162.42 31.9393 162.707 32.1824C163.05 32.4728 163.068 32.996 162.745 33.3128L148.909 46.8896C146.511 49.3668 141.419 58.4184 143.329 61.1482L148.99 69.2321C150.902 71.957 159.089 67.3235 161.49 64.8469L174.718 50.5457C175.012 50.2286 175.534 50.3239 175.692 50.7233C175.826 51.063 176.236 51.1651 176.382 50.8283C176.483 50.5945 176.545 50.2811 176.481 49.8785ZM168.482 55.0493C168.362 55.1751 168.169 55.1829 168.032 55.0779C167.523 54.662 167.444 53.8979 167.904 53.4234L170.358 50.8936C171.066 50.1613 171.986 51.2686 171.3 52.021C170.442 52.9619 169.48 54.0016 168.482 55.0493ZM153.846 67.1062C151.938 66.3854 150.221 64.313 149.389 63.1757C149.02 62.6724 148.664 62.1626 148.317 61.6441C147.527 60.4629 146.121 58.0753 145.84 55.6789C145.812 55.4602 145.876 55.2851 146.022 55.1422L150.97 50.3654C151.087 50.253 151.216 50.2124 151.359 50.2437C151.499 50.2744 151.603 50.3698 151.666 50.519C152.134 51.6615 153.428 54.4641 154.748 56.3374C156.063 58.215 158.132 60.2198 158.982 60.9653C159.099 61.0625 159.155 61.2006 159.157 61.3755C159.163 61.5461 159.107 61.6974 158.998 61.8159L154.311 66.971C154.172 67.1249 154.018 67.1667 153.846 67.1062ZM164.59 33.7615C164.59 33.7617 164.59 33.7616 164.59 33.7618C164.587 33.7674 162.264 37.9416 161.696 38.5301L159.344 40.9521C158.901 41.4081 158.139 41.2283 157.916 40.6368C157.849 40.4454 157.89 40.2297 158.033 40.0845C161.343 36.7322 164.519 33.8231 164.59 33.758C164.591 33.757 164.591 33.76 164.59 33.7615ZM175.698 46.5392C173.241 48.0399 170.051 46.9808 168.606 44.5127C168.305 43.9974 167.987 43.4923 167.661 43.0267C167.091 42.2148 166.419 41.4134 165.765 40.6966C164.257 39.0428 163.855 36.5794 165.011 34.6479L166.81 31.6487C167.061 31.2309 167.494 30.9515 167.972 31.042C169.139 31.2559 171.532 32.2111 174.307 36.1725C176.535 39.3555 177.225 41.9262 177.405 43.5587C177.542 44.8045 176.773 45.8826 175.698 46.5392ZM185.148 34.9021C185.285 34.1505 185.88 34.2663 185.804 35.0261C185.772 35.3576 185.723 35.6858 185.659 36.0101C185.568 36.4692 185.056 36.4632 185.055 35.9959C185.055 35.9712 185.057 35.9451 185.06 35.9206C185.062 35.9041 185.064 35.8883 185.064 35.8739C185.083 35.6721 185.094 35.4692 185.092 35.2693C185.107 35.144 185.126 35.0212 185.148 34.9021ZM177.099 22.5964C177.827 22.6364 177.884 23.3383 177.157 23.3976C177.07 23.4047 176.98 23.4088 176.89 23.4092C176.822 23.4096 176.754 23.4018 176.686 23.3914C176.557 23.3714 176.427 23.3577 176.295 23.3498L176.221 23.3439C175.715 23.2494 175.819 22.6498 176.334 22.6082C176.588 22.5876 176.843 22.5834 177.099 22.5964ZM157.112 41.0209C157.179 40.9482 157.293 40.9669 157.337 41.0548C157.356 41.0942 157.376 41.1336 157.397 41.1731C157.752 41.9062 157.574 42.7765 157.003 43.3647L154.365 46.0808C153.578 46.8922 152.665 45.7831 153.427 44.9478C154.532 43.7358 155.81 42.3626 157.112 41.0209ZM167.587 55.9797C166.431 57.1707 165.258 58.3355 164.193 59.3715C163.379 60.1644 162.236 59.2651 163.027 58.4491L165.732 55.6632C166.222 55.1586 167.021 55.1171 167.512 55.6143C167.537 55.6409 167.562 55.667 167.587 55.6928C167.664 55.7727 167.664 55.8987 167.587 55.9797Z" fill="#1F1F1F" stroke="white" stroke-width="2.66667" mask="url(#path-1-inside-1_20_635)"/>
<mask id="mask0_20_635" style="mask-type:luminance" maskUnits="userSpaceOnUse" x="53" y="104" width="23" height="45">
<path d="M67.6765 104.903C72.2004 105.577 75.2969 109.787 74.5923 114.306L70.4999 140.547C69.7951 145.066 65.5558 148.184 61.0318 147.51C56.508 146.836 53.4124 142.626 54.1172 138.106L58.2096 111.865C58.9145 107.346 63.1527 104.229 67.6765 104.903Z" fill="white" stroke="white" stroke-width="1.33333"/>
</mask>
<g mask="url(#mask0_20_635)">
<path d="M74.4655 109.317L61.6958 137.971L61.6947 137.972C61.429 138.572 61.0924 139.125 60.7025 139.619L60.534 139.825L58.8775 141.759C58.9384 141.439 58.958 141.111 58.9307 140.783L58.9093 140.591C58.8586 140.223 58.8998 139.847 59.0274 139.498L59.087 139.35L60.4287 136.343C60.7369 135.653 60.6813 134.86 60.2874 134.226L60.2041 134.101C60.035 133.866 59.9861 133.567 60.0674 133.292L60.1102 133.176L60.9692 131.248C61.0494 131.069 61.2203 130.949 61.4119 130.932L61.4951 130.931C62.2308 130.979 62.924 130.591 63.2719 129.95L63.3368 129.819L64.1277 128.043C64.1895 127.904 64.3215 127.812 64.4693 127.799L64.5335 127.798C65.2212 127.844 65.8696 127.481 66.1946 126.882L66.2553 126.758L69.1284 120.307C69.4138 119.666 69.3631 118.932 68.9999 118.343L68.9231 118.227C68.7832 118.03 68.7439 117.782 68.8116 117.553L68.8465 117.457L71.3694 111.799C71.7625 110.918 71.4773 109.896 70.7104 109.345L70.5507 109.242C69.5743 108.672 68.3312 109.02 67.7734 109.977L67.6712 110.176L65.0749 116C64.9878 116.195 64.8014 116.326 64.5932 116.344L64.5022 116.345C63.7482 116.295 63.0375 116.693 62.681 117.35L62.6145 117.485L61.8403 119.224C61.5245 119.933 61.5821 120.747 61.9866 121.397L62.0725 121.525C62.2527 121.775 62.3044 122.094 62.2178 122.386L62.1719 122.51L61.6582 123.662C61.5714 123.856 61.3863 123.985 61.1788 124.004L61.0887 124.005C60.3356 123.956 59.6259 124.352 59.2698 125.009L59.2034 125.143L56.4266 131.37C56.1101 132.08 56.1674 132.894 56.5715 133.546L56.6564 133.673C56.837 133.925 56.8883 134.246 56.801 134.54L56.755 134.663L55.4919 137.496C55.3603 137.791 55.15 138.044 54.8857 138.228L54.7695 138.301C54.4941 138.462 54.2486 138.663 54.0387 138.893L54.4512 136.121C54.5662 135.36 54.7805 134.624 55.0855 133.936L55.0847 133.935L67.7914 105.425L74.4655 109.317Z" fill="#1F1F1F" stroke="white" stroke-width="1.33333"/>
</g>
<path d="M74.7489 75.1154C75.8439 73.4617 77.5978 73.0153 78.9333 73.7928L78.9334 73.7918L79.393 74.0647L79.3967 74.0662L82.2999 75.7556L82.2997 75.7565L90.1707 80.3522C91.5587 81.1605 92.3085 83.1737 91.7681 85.2118C91.6144 85.7895 91.2402 86.2434 90.808 86.4757C90.4418 86.6725 90.0374 86.7129 89.646 86.5435L89.4794 86.4585C89.009 86.1784 88.5612 85.8486 88.1362 85.4764C88.5882 84.171 88.2159 82.6086 87.0361 81.9211L87.0371 81.9212L84.4544 80.4139L84.4535 80.4137C84.4529 80.4134 84.4517 80.4129 84.4507 80.4123C84.4488 80.4112 84.4462 80.4092 84.4426 80.4072C84.4349 80.4027 84.423 80.3959 84.4082 80.3872C84.3786 80.37 84.3357 80.3441 84.2806 80.3119C84.1701 80.2475 84.0117 80.1555 83.8203 80.0439L82.3861 79.2082C82.0814 79.0308 81.6173 78.8608 81.126 78.7194C80.6215 78.5741 80.0376 78.4452 79.4663 78.3665C78.9031 78.2889 78.3147 78.254 77.8153 78.3189C77.3778 78.3759 76.7216 78.547 76.4545 79.148L75.4559 81.3875C74.853 82.7339 75.1943 84.4674 76.4565 85.2005L76.4566 85.1995L82.6041 88.793C82.9894 89.0182 83.3599 89.3082 83.7159 89.63L84.0674 89.9618C85.328 91.199 86.4641 92.6924 87.1124 94.2532C87.7177 95.7107 87.8839 97.1869 87.3833 98.5805L87.2738 98.8584L86.8324 99.8698L85.5617 102.719L85.5616 102.72C83.6479 107.02 79.4898 108.751 76.1858 107.077L75.8688 106.904L68.8082 102.784L68.493 102.587C65.3016 100.463 64.0851 95.4559 66.0085 91.1337L67.2801 88.2842L67.2803 88.2832C68.8802 84.6908 70.7381 81.2595 72.8267 78.0299L73.2473 77.3866L74.7489 75.1154ZM78.737 90.4956C76.0003 88.8974 72.724 90.3288 71.218 93.3395L71.0779 93.6355L71.0778 93.6365C69.702 96.7268 70.4842 100.505 73.0341 102.196L73.2864 102.353C76.0226 103.951 79.299 102.52 80.801 99.5122L80.9401 99.216L80.941 99.2162C82.3609 96.0268 81.4824 92.0991 78.737 90.4956Z" fill="#1F1F1F" stroke="white" stroke-width="1.33333"/>
<path d="M73.4286 94.828C74.2614 92.9629 75.9967 92.3162 77.3054 92.9807L77.4311 93.0488L77.4329 93.0501C78.7931 93.8413 79.4221 95.9341 78.6693 97.8352L78.5923 98.0182C77.7597 99.8832 76.0265 100.533 74.7129 99.87L74.5872 99.8009C73.1871 98.9795 72.5624 96.7808 73.4286 94.828Z" fill="#1F1F1F" stroke="white" stroke-width="1.33333"/>
<mask id="mask1_20_635" style="mask-type:luminance" maskUnits="userSpaceOnUse" x="88" y="75" width="48" height="72">
<path d="M114.221 76.144L119.765 76.97C129.233 78.3807 135.713 87.1916 134.238 96.6501L128.83 131.33C127.354 140.788 118.483 147.312 109.015 145.901L103.471 145.075C94.0024 143.665 87.5229 134.854 88.9978 125.395L94.4061 90.7158C95.8812 81.2572 104.752 74.7333 114.221 76.144Z" fill="white" stroke="white" stroke-width="1.33333"/>
</mask>
<g mask="url(#mask1_20_635)">
<path d="M116.298 76.8006C118.609 76.2678 120.915 77.4479 122.095 79.9016L122.206 80.1432C124.5 85.4013 126.056 91.126 126.808 97.0958L126.947 98.2935L128.862 116.133C129.507 122.135 129.338 128.283 128.361 134.344L128.155 135.554C127.619 138.536 125.656 140.841 123.327 141.487L123.1 141.544L106.99 145.237L106.989 145.237C104.678 145.77 102.371 144.594 101.192 142.137L101.081 141.894C98.7833 136.636 97.231 130.912 96.4794 124.942L96.3391 123.744L94.4246 105.904C93.9731 101.702 93.9292 97.4277 94.2757 93.1574L94.3506 92.3027C94.392 91.8547 94.438 91.4069 94.4889 90.9598L94.6553 89.6202L94.6559 89.6163L94.6819 89.3931L94.7063 89.1854L94.7573 88.808C94.8696 88.0362 94.9949 87.2564 95.1317 86.4833C95.6678 83.5016 97.6308 81.1975 99.9598 80.5511L100.186 80.493L100.187 80.4931L100.711 80.3727C101.374 80.2204 101.954 80.4543 102.278 80.8264C102.567 81.1588 102.669 81.6137 102.417 82.1029L102.362 82.2014L102.195 82.4687C102.101 82.6152 101.95 82.7311 101.764 82.7925L101.682 82.8149C100.483 83.0919 99.7658 84.3629 99.854 85.5578L99.8553 85.5689L99.8567 85.5789L100.012 87.0347L100.012 87.0357L100.146 88.2711L100.146 88.272C100.17 88.5097 100.23 88.7137 100.296 88.8926L100.295 88.8936C100.308 88.9318 100.321 88.9647 100.327 88.9792C100.335 88.9991 100.335 89.0014 100.336 89.0053L100.345 89.0263L100.354 89.0464C100.441 89.2426 100.551 89.4273 100.707 89.6144L100.707 89.6154L100.715 89.6245C100.865 89.7965 101.04 89.9427 101.222 90.0555L101.237 90.0645L101.251 90.0726C101.453 90.1841 101.67 90.2593 101.899 90.3004L101.908 90.3028L102.263 90.3556C102.467 90.3861 102.674 90.3398 102.847 90.2315L116.018 87.2127L116.02 87.213C117.172 86.945 117.878 85.7708 117.852 84.6088L117.836 84.3765L117.556 81.7459L117.555 81.7438L117.519 81.5124C117.303 80.4461 116.432 79.5844 115.311 79.7024L115.066 79.743L115.065 79.7438L110.818 80.7194C110.048 80.8963 109.252 80.1793 109.333 79.2976L109.361 79.1191C109.453 78.7076 109.734 78.379 110.082 78.2392L110.235 78.1909L116.297 76.8005L116.298 76.8006ZM121.406 92.9283C120.712 91.6266 119.405 90.8596 117.986 91.0504L117.68 91.1065L101.572 94.7993L101.571 94.7991C100.077 95.1434 98.9306 96.4672 98.5372 98.0516L98.4685 98.3712L98.4684 98.3721C97.4416 104.107 97.18 109.899 97.6887 115.609L97.8004 116.75L98.4795 123.099L98.4805 123.099C99.1328 129.177 100.646 134.964 102.976 140.306L102.976 140.307C103.661 141.879 105.199 142.8 106.837 142.422L106.836 142.421L122.947 138.729C124.544 138.363 125.743 136.882 126.051 135.152C127.081 129.417 127.343 123.624 126.834 117.918L126.722 116.779L126.038 110.429C125.426 104.731 124.062 99.2844 121.973 94.2232L121.546 93.2167L121.545 93.2155L121.406 92.9283Z" fill="#1F1F1F" stroke="white" stroke-width="1.33333"/>
</g>
<mask id="mask2_20_635" style="mask-type:luminance" maskUnits="userSpaceOnUse" x="78" y="58" width="31" height="35">
<path d="M96.4814 59.2891C104.073 60.4202 109.269 67.4847 108.087 75.0686L107.305 80.0784C106.123 87.6623 99.009 92.8929 91.4172 91.7618C83.8255 90.6307 78.6303 83.5663 79.8129 75.9824L80.5942 70.9727C81.777 63.3889 88.8897 58.1582 96.4814 59.2891Z" fill="white" stroke="white" stroke-width="1.33333"/>
</mask>
<g mask="url(#mask2_20_635)">
<path d="M82.2914 82.2744C82.4517 82.1535 82.6975 82.0974 82.9606 82.2042L83.0744 82.2607C83.1859 82.3258 83.2848 82.4211 83.3597 82.5411L83.4257 82.6695C85.0599 86.4381 88.1694 89.2537 92.1281 89.8435C92.3213 89.8724 92.4173 90.0072 92.4286 90.1222L92.4279 90.1705L92.3277 91.054C92.2954 91.3565 92.0508 91.5033 91.8733 91.477C87.5711 90.8361 84.0965 87.7111 82.3013 83.3392L82.1336 82.9124C82.0222 82.6182 82.1209 82.403 82.2914 82.2744ZM96.8836 59.3498C104.019 60.413 108.93 68.3906 107.529 77.3727C106.867 81.6191 104.907 85.2709 102.265 87.8082C102.194 86.7816 102.562 85.7422 103.2 84.8188L103.338 84.628C104.869 82.5711 105.968 80.0319 106.409 77.2057C107.63 69.3734 103.377 61.9878 96.629 60.9824C90.0056 59.9956 83.8047 65.5694 82.4185 73.1764L81.7001 72.7574C81.5324 72.6593 81.4463 72.4878 81.4549 72.321L81.4639 72.2503C83.2902 63.9206 90.0682 58.3344 96.8836 59.3498Z" fill="#1F1F1F" stroke="white" stroke-width="1.33333"/>
</g>
<mask id="path-10-inside-2_20_635" fill="white">
<path d="M117.021 131.056C116.885 130.737 116.587 130.567 116.28 130.636L111.98 131.623L111.878 131.647C111.481 131.738 111.2 132.195 111.251 132.662C111.259 132.727 111.318 132.773 111.383 132.769C111.971 132.736 112.535 132.911 113.011 133.259C113.721 133.778 114.56 134.267 115.421 134.07L117.04 133.699C117.275 133.644 117.475 133.469 117.585 133.211C117.699 132.954 117.704 132.66 117.598 132.415L117.021 131.056ZM111.228 101.135C112.323 100.884 113.101 99.7806 112.542 98.8135C112.037 97.9397 111.327 97.4583 110.599 97.6243C109.962 97.7713 109.443 98.3796 109.123 99.2336C108.664 100.462 109.949 101.428 111.228 101.135ZM118.13 133.517C117.924 133.995 117.555 134.324 117.12 134.424L113.845 135.175C113.702 135.208 113.557 135.133 113.502 134.998C113.053 133.898 112.061 133.321 111.033 133.557C110.871 133.594 110.714 133.483 110.696 133.319L110.64 132.805C110.473 131.255 112.363 130.299 113.417 129.139L115.407 126.949C115.516 126.835 115.668 126.808 115.782 126.895L116.868 127.685C117.008 127.786 117.047 128.011 116.954 128.187C116.856 128.367 116.666 128.423 116.526 128.323L116.353 128.197C115.944 127.898 115.372 127.958 115.029 128.337C114.378 129.057 115.035 130.18 115.981 129.963L116.204 129.911C116.771 129.781 117.323 130.093 117.575 130.69L118.153 132.048C118.346 132.501 118.34 133.039 118.13 133.517ZM111.724 137.198C111.033 137.355 110.405 136.817 110.315 136C110.229 135.179 110.714 134.388 111.405 134.231C112.096 134.07 112.728 134.608 112.815 135.425C112.904 136.246 112.415 137.037 111.724 137.198ZM124.641 125.335C124.673 124.027 123.715 123.071 122.632 123.319L103.762 127.644C102.679 127.892 101.968 129.233 102.274 130.466C103.006 133.414 103.964 136.267 105.156 138.989C105.401 139.555 105.932 139.838 106.474 139.714L122.584 136.022C123.122 135.897 123.568 135.385 123.684 134.743C124.246 131.614 124.563 128.472 124.641 125.335ZM110.519 96.8988C111.766 96.6146 112.964 97.7098 113.535 99.4731C113.764 100.184 114.417 100.849 114.496 101.593L114.7 103.5C114.855 104.935 113.996 106.329 112.789 106.603L110.392 107.154C109.185 107.429 108.077 106.49 107.923 105.055L107.718 103.148C107.631 102.324 108.112 101.464 108.193 100.638C108.381 98.7316 109.285 97.1839 110.519 96.8988ZM101.889 110.174L120.754 105.849C121.838 105.601 122.548 104.26 122.242 103.032C121.508 100.093 120.553 97.251 119.364 94.534C119.119 93.9734 118.588 93.6848 118.05 93.8092L101.939 97.5068C101.398 97.6258 100.953 98.1382 100.835 98.7844C100.279 101.9 99.9638 105.032 99.8834 108.159C99.8481 109.466 100.805 110.427 101.889 110.174ZM111.124 102.538C111.662 102.413 112.156 102.831 112.225 103.47C112.245 103.658 112.226 103.843 112.175 104.014C112.06 104.406 111.882 104.803 111.925 105.207C111.945 105.4 111.835 105.578 111.673 105.614L111.246 105.715C111.088 105.751 110.943 105.625 110.923 105.437C110.88 105.041 110.586 104.711 110.404 104.357C110.338 104.229 110.293 104.081 110.276 103.918C110.207 103.279 110.587 102.662 111.124 102.538ZM108.532 104.916C108.643 105.946 109.446 106.629 110.316 106.429L112.713 105.878C113.583 105.679 114.201 104.673 114.09 103.643L113.886 101.737C113.858 101.488 113.667 101.32 113.454 101.368L108.663 102.471C108.45 102.519 108.301 102.761 108.328 103.01L108.532 104.916ZM112.675 116.986C113.216 116.867 113.707 117.284 113.775 117.923C113.795 118.108 113.777 118.289 113.728 118.458C113.614 118.853 113.433 119.252 113.476 119.66C113.496 119.847 113.385 120.03 113.227 120.067L112.797 120.162C112.639 120.199 112.494 120.077 112.473 119.89C112.431 119.491 112.135 119.158 111.953 118.801C111.888 118.674 111.844 118.527 111.827 118.366C111.757 117.732 112.138 117.11 112.675 116.986ZM109.889 117.524L110.094 119.43C110.204 120.465 111.003 121.143 111.873 120.943L114.271 120.392C115.141 120.192 115.757 119.191 115.647 118.157L115.443 116.25C115.416 116.002 115.223 115.838 115.014 115.887L110.557 116.909L110.22 116.984C110.011 117.033 109.862 117.275 109.889 117.524ZM107.495 112.466C107.894 112.374 108.288 112.424 108.658 112.593C110.759 113.55 112.675 115.677 114.935 115.157C115.485 115.034 115.986 115.458 116.057 116.112L116.262 118.014C116.416 119.449 115.557 120.843 114.347 121.117L111.953 121.668C110.743 121.942 109.635 121.004 109.48 119.568L109.275 117.667C109.173 116.666 110.064 115.45 109.605 114.557C109.098 113.572 108.346 113.014 107.571 113.191C106.347 113.473 105.543 115.464 105.777 117.629C105.798 117.832 105.678 118.024 105.507 118.063C105.341 118.103 105.185 117.97 105.162 117.772C104.888 115.202 105.934 112.823 107.495 112.466ZM122.874 120.661C123.838 120.44 124.515 119.338 124.415 118.191C124.39 117.878 124.356 117.563 124.323 117.249L123.643 110.9C123.606 110.56 123.564 110.225 123.521 109.889C123.376 108.764 122.491 108.054 121.54 108.271L101.647 112.833C100.695 113.055 100.002 114.124 100.101 115.257C100.129 115.6 100.164 115.935 100.197 116.274L100.88 122.628C100.914 122.938 100.952 123.248 100.99 123.558C101.136 124.703 102.012 125.442 102.976 125.221L122.874 120.661Z"/>
</mask>
<path d="M117.021 131.056C116.885 130.737 116.587 130.567 116.28 130.636L111.98 131.623L111.878 131.647C111.481 131.738 111.2 132.195 111.251 132.662C111.259 132.727 111.318 132.773 111.383 132.769C111.971 132.736 112.535 132.911 113.011 133.259C113.721 133.778 114.56 134.267 115.421 134.07L117.04 133.699C117.275 133.644 117.475 133.469 117.585 133.211C117.699 132.954 117.704 132.66 117.598 132.415L117.021 131.056ZM111.228 101.135C112.323 100.884 113.101 99.7806 112.542 98.8135C112.037 97.9397 111.327 97.4583 110.599 97.6243C109.962 97.7713 109.443 98.3796 109.123 99.2336C108.664 100.462 109.949 101.428 111.228 101.135ZM118.13 133.517C117.924 133.995 117.555 134.324 117.12 134.424L113.845 135.175C113.702 135.208 113.557 135.133 113.502 134.998C113.053 133.898 112.061 133.321 111.033 133.557C110.871 133.594 110.714 133.483 110.696 133.319L110.64 132.805C110.473 131.255 112.363 130.299 113.417 129.139L115.407 126.949C115.516 126.835 115.668 126.808 115.782 126.895L116.868 127.685C117.008 127.786 117.047 128.011 116.954 128.187C116.856 128.367 116.666 128.423 116.526 128.323L116.353 128.197C115.944 127.898 115.372 127.958 115.029 128.337C114.378 129.057 115.035 130.18 115.981 129.963L116.204 129.911C116.771 129.781 117.323 130.093 117.575 130.69L118.153 132.048C118.346 132.501 118.34 133.039 118.13 133.517ZM111.724 137.198C111.033 137.355 110.405 136.817 110.315 136C110.229 135.179 110.714 134.388 111.405 134.231C112.096 134.07 112.728 134.608 112.815 135.425C112.904 136.246 112.415 137.037 111.724 137.198ZM124.641 125.335C124.673 124.027 123.715 123.071 122.632 123.319L103.762 127.644C102.679 127.892 101.968 129.233 102.274 130.466C103.006 133.414 103.964 136.267 105.156 138.989C105.401 139.555 105.932 139.838 106.474 139.714L122.584 136.022C123.122 135.897 123.568 135.385 123.684 134.743C124.246 131.614 124.563 128.472 124.641 125.335ZM110.519 96.8988C111.766 96.6146 112.964 97.7098 113.535 99.4731C113.764 100.184 114.417 100.849 114.496 101.593L114.7 103.5C114.855 104.935 113.996 106.329 112.789 106.603L110.392 107.154C109.185 107.429 108.077 106.49 107.923 105.055L107.718 103.148C107.631 102.324 108.112 101.464 108.193 100.638C108.381 98.7316 109.285 97.1839 110.519 96.8988ZM101.889 110.174L120.754 105.849C121.838 105.601 122.548 104.26 122.242 103.032C121.508 100.093 120.553 97.251 119.364 94.534C119.119 93.9734 118.588 93.6848 118.05 93.8092L101.939 97.5068C101.398 97.6258 100.953 98.1382 100.835 98.7844C100.279 101.9 99.9638 105.032 99.8834 108.159C99.8481 109.466 100.805 110.427 101.889 110.174ZM111.124 102.538C111.662 102.413 112.156 102.831 112.225 103.47C112.245 103.658 112.226 103.843 112.175 104.014C112.06 104.406 111.882 104.803 111.925 105.207C111.945 105.4 111.835 105.578 111.673 105.614L111.246 105.715C111.088 105.751 110.943 105.625 110.923 105.437C110.88 105.041 110.586 104.711 110.404 104.357C110.338 104.229 110.293 104.081 110.276 103.918C110.207 103.279 110.587 102.662 111.124 102.538ZM108.532 104.916C108.643 105.946 109.446 106.629 110.316 106.429L112.713 105.878C113.583 105.679 114.201 104.673 114.09 103.643L113.886 101.737C113.858 101.488 113.667 101.32 113.454 101.368L108.663 102.471C108.45 102.519 108.301 102.761 108.328 103.01L108.532 104.916ZM112.675 116.986C113.216 116.867 113.707 117.284 113.775 117.923C113.795 118.108 113.777 118.289 113.728 118.458C113.614 118.853 113.433 119.252 113.476 119.66C113.496 119.847 113.385 120.03 113.227 120.067L112.797 120.162C112.639 120.199 112.494 120.077 112.473 119.89C112.431 119.491 112.135 119.158 111.953 118.801C111.888 118.674 111.844 118.527 111.827 118.366C111.757 117.732 112.138 117.11 112.675 116.986ZM109.889 117.524L110.094 119.43C110.204 120.465 111.003 121.143 111.873 120.943L114.271 120.392C115.141 120.192 115.757 119.191 115.647 118.157L115.443 116.25C115.416 116.002 115.223 115.838 115.014 115.887L110.557 116.909L110.22 116.984C110.011 117.033 109.862 117.275 109.889 117.524ZM107.495 112.466C107.894 112.374 108.288 112.424 108.658 112.593C110.759 113.55 112.675 115.677 114.935 115.157C115.485 115.034 115.986 115.458 116.057 116.112L116.262 118.014C116.416 119.449 115.557 120.843 114.347 121.117L111.953 121.668C110.743 121.942 109.635 121.004 109.48 119.568L109.275 117.667C109.173 116.666 110.064 115.45 109.605 114.557C109.098 113.572 108.346 113.014 107.571 113.191C106.347 113.473 105.543 115.464 105.777 117.629C105.798 117.832 105.678 118.024 105.507 118.063C105.341 118.103 105.185 117.97 105.162 117.772C104.888 115.202 105.934 112.823 107.495 112.466ZM122.874 120.661C123.838 120.44 124.515 119.338 124.415 118.191C124.39 117.878 124.356 117.563 124.323 117.249L123.643 110.9C123.606 110.56 123.564 110.225 123.521 109.889C123.376 108.764 122.491 108.054 121.54 108.271L101.647 112.833C100.695 113.055 100.002 114.124 100.101 115.257C100.129 115.6 100.164 115.935 100.197 116.274L100.88 122.628C100.914 122.938 100.952 123.248 100.99 123.558C101.136 124.703 102.012 125.442 102.976 125.221L122.874 120.661Z" fill="#1F1F1F" stroke="white" stroke-width="2.66667" mask="url(#path-10-inside-2_20_635)"/>
</svg>
