<svg width="78" height="40" viewBox="0 0 78 40" fill="none" xmlns="http://www.w3.org/2000/svg">
<path d="M65.5002 32.375V4.625M65.5002 4.625L57.7918 12.3333M65.5002 4.625L73.2085 12.3333" stroke="white" stroke-width="3.08333" stroke-linecap="round" stroke-linejoin="round"/>
<path d="M47 33.5714V17.6284C47 17.4016 46.9614 17.1764 46.8859 16.9626L41.721 2.33414C41.4388 1.53463 40.683 1 39.8351 1H8.16486C7.31698 1 6.56124 1.53463 6.27895 2.33414L1.1141 16.9626C1.03858 17.1764 1 17.4016 1 17.6284V33.5714M47 33.5714H1M47 33.5714V37.6429C47 38.3924 46.3564 39 45.5625 39C44.7686 39 44.125 38.3924 44.125 37.6429V33.5714M1 33.5714V37.6429C1 38.3924 1.64359 39 2.4375 39C3.23141 39 3.875 38.3924 3.875 37.6429V33.5714M1.95833 14.5714H46.0417M12.5 22.7143V25.4286M35.5 22.7143V25.4286" stroke="white" stroke-width="2" stroke-linecap="round" stroke-linejoin="round"/>
</svg>
