<svg width="50" height="54" viewBox="0 0 50 54" fill="none" xmlns="http://www.w3.org/2000/svg">
<path d="M18.7382 7.17637C19.2805 4.73617 21.4448 3 23.9446 3H26.0547C28.5545 3 30.7188 4.73617 31.2611 7.17637L31.8022 9.61161C33.5652 10.3018 35.1976 11.2525 36.6522 12.4161L39.0367 11.6656C41.4211 10.9151 44.0068 11.9214 45.2567 14.0863L46.3118 15.9137C47.5616 18.0785 47.1402 20.821 45.2981 22.5107L43.4576 24.199C43.5951 25.1126 43.6663 26.048 43.6663 27C43.6663 27.952 43.5951 28.8873 43.4576 29.801L45.2981 31.4893C47.1403 33.179 47.5617 35.9214 46.3118 38.0863L45.2567 39.9137C44.0069 42.0786 41.4211 43.0848 39.0367 42.3344L36.6522 41.5838C35.1977 42.7475 33.5652 43.6982 31.8022 44.3884L31.2611 46.8236C30.7188 49.2638 28.5545 51 26.0547 51H23.9446C21.4448 51 19.2805 49.2638 18.7382 46.8236L18.1971 44.3884C16.4341 43.6982 14.8016 42.7475 13.3471 41.5838L10.9626 42.3343C8.57815 43.0848 5.99241 42.0785 4.74255 39.9137L3.68747 38.0863C2.4376 35.9214 2.859 33.179 4.70114 31.4893L6.54173 29.801C6.40425 28.8873 6.33299 27.952 6.33299 27C6.33299 26.048 6.40425 25.1127 6.54174 24.199L4.70118 22.5107C2.85904 20.821 2.43764 18.0786 3.6875 15.9137L4.74259 14.0863C5.99245 11.9214 8.57818 10.9152 10.9626 11.6656L13.3471 12.4162C14.8016 11.2525 16.4341 10.3018 18.1971 9.61161L18.7382 7.17637Z" stroke="white" stroke-width="5.33333" stroke-linecap="round" stroke-linejoin="round"/>
<path d="M27.6663 27C27.6663 28.4728 26.4724 29.6667 24.9996 29.6667C23.5268 29.6667 22.3329 28.4728 22.3329 27C22.3329 25.5272 23.5268 24.3333 24.9996 24.3333C26.4724 24.3333 27.6663 25.5272 27.6663 27Z" stroke="white" stroke-width="5.33333" stroke-linecap="round" stroke-linejoin="round"/>
</svg>
