<svg width="18" height="20" viewBox="0 0 18 20" fill="none" xmlns="http://www.w3.org/2000/svg">
<path fill-rule="evenodd" clip-rule="evenodd" d="M9 10C7.21367 10 5.56304 9.04701 4.66987 7.5C3.77671 5.953 3.77671 4.04701 4.66987 2.5C5.56304 0.952995 7.21367 9.53674e-07 9 0C10.7863 0 12.437 0.952993 13.3301 2.5C14.2233 4.047 14.2233 5.95299 13.3301 7.5C12.437 9.047 10.7863 10 9 10H9ZM8.99999 8C10.6568 8 12 6.65686 12 5.00001C12 3.34316 10.6569 2.00001 9.00001 2C7.34316 2 6.00001 3.34313 6 4.99999C5.99999 6.65684 7.34313 7.99999 8.99998 8H8.99999ZM18 19C18 19.3573 17.8094 19.6874 17.5 19.866C17.1906 20.0447 16.8094 20.0447 16.5 19.866C16.1906 19.6874 16 19.3573 16 19V17C16 15.3431 14.6569 14 13 14H5C3.34315 14 2 15.3431 2 17V19C2 19.3573 1.8094 19.6874 1.5 19.866C1.1906 20.0447 0.809401 20.0447 0.5 19.866C0.190599 19.6874 0 19.3573 0 19V17C-4.76837e-07 14.2386 2.23858 12 5 12H13C15.7614 12 18 14.2386 18 17V19Z" fill="#9E9E9E"/>
</svg>
