<svg width="13" height="18" viewBox="0 0 13 18" fill="none" xmlns="http://www.w3.org/2000/svg">
<path fill-rule="evenodd" clip-rule="evenodd" d="M10.4516 8.70972H2.32255C1.68118 8.70972 1.16125 9.22964 1.16125 9.87101V15.6775C1.16125 16.3188 1.68118 16.8387 2.32255 16.8387H10.4516C11.0929 16.8387 11.6129 16.3188 11.6129 15.6775V9.87101C11.6129 9.22964 11.0929 8.70972 10.4516 8.70972ZM2.32258 7.54834C1.03985 7.54834 0 8.58819 0 9.87092V15.6774C0 16.9601 1.03986 18 2.32258 18H10.4516C11.7343 18 12.7742 16.9601 12.7742 15.6774V9.87092C12.7742 8.58819 11.7343 7.54834 10.4516 7.54834H2.32258ZM2.32263 4.06452C2.32263 2.61241 3.09732 1.2706 4.35489 0.544543C5.61245 -0.181513 7.16184 -0.181514 8.4194 0.544541C9.67697 1.2706 10.4517 2.6124 10.4517 4.06451V7.54839H9.29037V4.06452C9.29037 2.46111 7.99056 1.16129 6.38715 1.16129C4.78375 1.16129 3.48393 2.4611 3.48392 4.0645V7.54839H2.32263V4.06452Z" fill="#9E9E9E"/>
</svg>
